<svg xmlns="http://www.w3.org/2000/svg" width="24" height="25" viewBox="0 0 24 25" fill="none">
  <path d="M8 6.5V4.5C8 3.95 8.196 3.479 8.588 3.087C8.98 2.695 9.45067 2.49934 10 2.5H14C14.55 2.5 15.021 2.696 15.413 3.088C15.805 3.48 16.0007 3.95067 16 4.5V6.5H20C20.55 6.5 21.021 6.696 21.413 7.088C21.805 7.48 22.0007 7.95067 22 8.5V13.5H15V11.5H9V13.5H2V8.5C2 7.95 2.196 7.479 2.588 7.087C2.98 6.695 3.45067 6.49934 4 6.5H8ZM10 6.5H14V4.5H10V6.5ZM11 15.5V13.5H13V15.5H11ZM2 15.5H9V17.5H15V15.5H22V19.5C22 20.05 21.804 20.521 21.412 20.913C21.02 21.305 20.5493 21.5007 20 21.5H4C3.45 21.5 2.979 21.304 2.587 20.912C2.195 20.52 1.99934 20.0493 2 19.5V15.5Z" fill="#808080"/>
</svg>