<svg xmlns="http://www.w3.org/2000/svg" width="24" height="25" viewBox="0 0 24 25" fill="none">
  <path d="M11.75 16.5H12.475V15.7C12.9417 15.6333 13.3377 15.4417 13.663 15.125C13.9883 14.8083 14.1507 14.4 14.15 13.9C14.15 13.4667 13.9833 13.104 13.65 12.812C13.3167 12.52 12.9333 12.2827 12.5 12.1V10.25C12.6667 10.3 12.8043 10.3833 12.913 10.5C13.0217 10.6167 13.1007 10.7583 13.15 10.925L14.05 10.55C13.9333 10.2 13.7333 9.921 13.45 9.713C13.1667 9.505 12.85 9.36733 12.5 9.3V8.5H11.75V9.275C11.2833 9.325 10.8873 9.496 10.562 9.788C10.2367 10.08 10.0743 10.4673 10.075 10.95C10.075 11.4 10.246 11.775 10.588 12.075C10.93 12.375 11.3173 12.6167 11.75 12.8V14.775C11.4833 14.6917 11.2583 14.55 11.075 14.35C10.8917 14.15 10.7667 13.9167 10.7 13.65L9.825 14.025C9.95833 14.4917 10.1917 14.875 10.525 15.175C10.8583 15.475 11.2667 15.6583 11.75 15.725V16.5ZM12.5 14.75V13.1C12.6833 13.1833 12.846 13.2833 12.988 13.4C13.13 13.5167 13.2007 13.6917 13.2 13.925C13.2 14.1917 13.1333 14.3793 13 14.488C12.8667 14.5967 12.7 14.684 12.5 14.75ZM11.75 11.775C11.5667 11.6917 11.4 11.5917 11.25 11.475C11.1 11.3583 11.025 11.1833 11.025 10.95C11.025 10.7167 11.1 10.5457 11.25 10.437C11.4 10.3283 11.5667 10.2577 11.75 10.225V11.775ZM8 19.5C6.05 19.5 4.39567 18.8207 3.037 17.462C1.67833 16.1033 0.999334 14.4493 1 12.5C1 10.55 1.67933 8.89567 3.038 7.537C4.39667 6.17833 6.05067 5.49933 8 5.5H16C17.95 5.5 19.6043 6.17933 20.963 7.538C22.3217 8.89667 23.0007 10.5507 23 12.5C23 14.45 22.3207 16.1043 20.962 17.463C19.6033 18.8217 17.9493 19.5007 16 19.5H8Z" fill="#101828"/>
</svg>