<svg xmlns="http://www.w3.org/2000/svg" width="24" height="25" viewBox="0 0 24 25" fill="none">
  <path d="M21.6633 8.43127C21.1374 7.17625 20.3724 6.03553 19.4109 5.07268C18.4523 4.10815 17.3136 3.34129 16.0594 2.81565C14.7746 2.27455 13.3941 1.99718 12 2.00002H11.9531C10.5352 2.00705 9.16406 2.2883 7.87266 2.84143C6.62923 3.37246 5.50118 4.14068 4.55156 5.10315C3.59937 6.06384 2.84314 7.20057 2.325 8.45002C1.78715 9.74931 1.51461 11.1431 1.52344 12.5492C1.53047 14.1758 1.91953 15.7906 2.6461 17.2344V20.7969C2.6461 21.3922 3.12891 21.875 3.72188 21.875H7.27969C8.73018 22.6069 10.3308 22.9921 11.9555 23H12.0047C13.4063 23 14.7633 22.7281 16.043 22.1961C17.2908 21.6767 18.4253 20.9188 19.3828 19.9649C20.3484 19.0063 21.1078 17.886 21.6398 16.6367C22.1906 15.343 22.4719 13.9672 22.4789 12.5469C22.4836 11.1196 22.207 9.7344 21.6633 8.43127ZM7.32188 13.625C6.70313 13.625 6.19922 13.1211 6.19922 12.5C6.19922 11.8789 6.70313 11.375 7.32188 11.375C7.94063 11.375 8.44453 11.8789 8.44453 12.5C8.44453 13.1211 7.94297 13.625 7.32188 13.625ZM12 13.625C11.3813 13.625 10.8773 13.1211 10.8773 12.5C10.8773 11.8789 11.3813 11.375 12 11.375C12.6188 11.375 13.1227 11.8789 13.1227 12.5C13.1227 13.1211 12.6188 13.625 12 13.625ZM16.6781 13.625C16.0594 13.625 15.5555 13.1211 15.5555 12.5C15.5555 11.8789 16.0594 11.375 16.6781 11.375C17.2969 11.375 17.8008 11.8789 17.8008 12.5C17.8008 13.1211 17.2969 13.625 16.6781 13.625Z" fill="#808080"/>
</svg>